<?xml version="1.0" ?><svg width="64px" height="64px" viewBox="0 0 64 64" xmlns="http://www.w3.org/2000/svg"><g data-name="12_Scinet" id="_12_Scinet"><path d="M32,46a14,14,0,0,1-5-27.079V13a1,1,0,0,1,1-1h8a1,1,0,0,1,1,1v5.921A14,14,0,0,1,32,46Z" style="fill:#fdfeff"/><path d="M21,32a13.946,13.946,0,0,1,9-13.079V13a1,1,0,0,1,1-1H28a1,1,0,0,0-1,1v5.921a14,14,0,0,0,6.5,27A14.017,14.017,0,0,1,21,32Z" style="fill:#dfeaef"/><path d="M32,46A14.014,14.014,0,0,1,18.035,31h27.93A14.014,14.014,0,0,1,32,46Z" style="fill:#febc00"/><path d="M21.035,31h-3A14.014,14.014,0,0,0,32,46a14.289,14.289,0,0,0,1.5-.08A14.018,14.018,0,0,1,21.035,31Z" style="fill:#f27b13"/><path d="M36.5,14h-9a3.5,3.5,0,0,1,0-7h9a3.5,3.5,0,0,1,0,7Z" style="fill:#f74e0c"/><path d="M39.5,11h-9A3.5,3.5,0,0,1,27,7.5a3.389,3.389,0,0,1,.046-.454A3.491,3.491,0,0,0,27.5,14h9a3.493,3.493,0,0,0,3.454-3.046A3.389,3.389,0,0,1,39.5,11Z" style="fill:#e03a07"/><path d="M12,10a4,4,0,1,1,4-4A4,4,0,0,1,12,10Z" style="fill:#0455bf"/><path d="M15,7a4,4,0,0,1-4-4,3.981,3.981,0,0,1,.108-.892,4,4,0,1,0,4.784,4.784A3.981,3.981,0,0,1,15,7Z" style="fill:#004787"/><path d="M18,20a3,3,0,1,1,3-3A3,3,0,0,1,18,20Z" style="fill:#febc00"/><path d="M20,19a2.986,2.986,0,0,1-2.24-4.976,2.992,2.992,0,1,0,2.48,4.952C20.159,18.982,20.082,19,20,19Z" style="fill:#f27b13"/><path d="M52,10a4,4,0,1,1,4-4A4,4,0,0,1,52,10Z" style="fill:#febc00"/><path d="M46,20a3,3,0,1,1,3-3A3,3,0,0,1,46,20Z" style="fill:#0455bf"/><polygon points="58 28 56 28 56 26 54 26 54 28 52 28 52 30 54 30 54 32 56 32 56 30 58 30 58 28" style="fill:#03a65a"/><polygon points="10 26 8 26 8 28 6 28 6 30 8 30 8 32 10 32 10 30 12 30 12 28 10 28 10 26" style="fill:#03a65a"/><path d="M32,57H5a1,1,0,0,1-1-1V48a1,1,0,0,1,1-1H24a9.011,9.011,0,0,1,9,9A1,1,0,0,1,32,57Z" style="fill:#fdfeff"/><path d="M31,56a9.011,9.011,0,0,1,9-9H59a1,1,0,0,1,1,1v8a1,1,0,0,1-1,1H32A1,1,0,0,1,31,56Z" style="fill:#fdfeff"/><path d="M61,62H3a1,1,0,0,1-1-1V56a1,1,0,0,1,1-1H61a1,1,0,0,1,1,1v5A1,1,0,0,1,61,62Z" style="fill:#0455bf"/><path d="M5,60a1,1,0,0,1-1-1V55H3a1,1,0,0,0-1,1v5a1,1,0,0,0,1,1H61a1,1,0,0,0,1-1V60Z" style="fill:#004787"/><rect height="2" style="fill:#d6e8f2" width="18" x="4" y="51"/><rect height="2" style="fill:#d6e8f2" width="18" x="42" y="51"/><path d="M49,59a1,1,0,0,1-1-1V51h8v7a1,1,0,0,1-1.557.831L52.014,57.2l-2.462,1.631A.993.993,0,0,1,49,59Z" style="fill:#f74e0c"/><path d="M50,58V51H48v7a1,1,0,0,0,1.552.833l.566-.375A.99.99,0,0,1,50,58Z" style="fill:#e03a07"/><rect height="2" style="fill:#d6e8f2" width="2" x="38" y="51"/><rect height="2" style="fill:#d6e8f2" width="2" x="24" y="51"/><path d="M55,7a4,4,0,0,1-4-4,3.981,3.981,0,0,1,.108-.892,4,4,0,1,0,4.784,4.784A3.981,3.981,0,0,1,55,7Z" style="fill:#f27b13"/><path d="M48,19a2.986,2.986,0,0,1-2.24-4.976,2.992,2.992,0,1,0,2.48,4.952C48.159,18.982,48.082,19,48,19Z" style="fill:#004787"/><rect height="2" style="fill:#b1cfdd" width="2" x="46" y="51"/><rect height="2" style="fill:#e4ebf2" width="2" x="46" y="53"/></g></svg>